<svg id="button-slider-left" xmlns="http://www.w3.org/2000/svg" xmlns:xlink="http://www.w3.org/1999/xlink" width="40" height="40" viewBox="0 0 40 40">
  <defs>
    <clipPath id="clip-path">
      <path id="button-left" d="M2.414,7,7.707,1.707A1,1,0,0,0,6.293.293l-6,6a1,1,0,0,0,0,1.414l6,6a1,1,0,1,0,1.414-1.414Z" fill="#572ee5"/>
    </clipPath>
  </defs>
  <g id="Rectangle_Copy_8" data-name="Rectangle Copy 8" fill="none" stroke="#572ee5" stroke-miterlimit="10" stroke-width="1">
    <rect width="40" height="40" stroke="none"/>
    <rect x="0.5" y="0.5" width="39" height="39" fill="none"/>
  </g>
  <g id="button-left-2" data-name="button-left" transform="translate(16 13)">
    <path id="button-left-3" data-name="button-left" d="M2.414,7,7.707,1.707A1,1,0,0,0,6.293.293l-6,6a1,1,0,0,0,0,1.414l6,6a1,1,0,1,0,1.414-1.414Z" fill="#572ee5"/>
  </g>
</svg>
