<svg id="button-slider-right-mod-noct-hover" xmlns="http://www.w3.org/2000/svg" xmlns:xlink="http://www.w3.org/1999/xlink" width="40" height="40" viewBox="0 0 40 40">
  <defs>
    <clipPath id="clip-path">
      <path id="Shape" d="M5.586,7,.293,12.293a1,1,0,0,0,1.414,1.414l6-6a1,1,0,0,0,0-1.414l-6-6A1,1,0,0,0,.293,1.707Z" transform="translate(8 5)"/>
    </clipPath>
  </defs>
  <rect id="Rectangle_Copy_8" data-name="Rectangle Copy 8" width="40" height="40" fill="#fff"/>
  <g id="Icons_Heart_Copy_2" data-name="Icons / Heart Copy 2" transform="translate(8 8)">
    <g id="Grupo_45" data-name="Grupo 45">
      <path id="Shape-2" data-name="Shape" d="M5.586,7,.293,12.293a1,1,0,0,0,1.414,1.414l6-6a1,1,0,0,0,0-1.414l-6-6A1,1,0,0,0,.293,1.707Z" transform="translate(8 5)"/>
      <g id="Enmascarar_grupo_50" data-name="Enmascarar grupo 50" clip-path="url(#clip-path)">
        <g id="COLOR_black" data-name="COLOR/ black">
          <rect id="Rectangle" width="24" height="24"/>
        </g>
      </g>
    </g>
  </g>
</svg>
