<svg id="button-slider-left-md-noct" xmlns="http://www.w3.org/2000/svg" xmlns:xlink="http://www.w3.org/1999/xlink" width="40" height="40" viewBox="0 0 40 40">
  <defs>
    <clipPath id="clip-path">
      <path id="Shape" d="M2.414,7,7.707,1.707A1,1,0,0,0,6.293.293l-6,6a1,1,0,0,0,0,1.414l6,6a1,1,0,1,0,1.414-1.414Z" transform="translate(8 5)"/>
    </clipPath>
  </defs>
  <g id="Rectangle_Copy_8" data-name="Rectangle Copy 8" fill="none" stroke="#fff" stroke-miterlimit="10" stroke-width="1">
    <rect width="40" height="40" stroke="none"/>
    <rect x="0.5" y="0.5" width="39" height="39" fill="none"/>
  </g>
  <g id="Icons_Heart_Copy_2" data-name="Icons / Heart Copy 2" transform="translate(8 8)">
    <g id="Grupo_46" data-name="Grupo 46">
      <path id="Shape-2" data-name="Shape" d="M2.414,7,7.707,1.707A1,1,0,0,0,6.293.293l-6,6a1,1,0,0,0,0,1.414l6,6a1,1,0,1,0,1.414-1.414Z" transform="translate(8 5)"/>
      <g id="Enmascarar_grupo_51" data-name="Enmascarar grupo 51" clip-path="url(#clip-path)">
        <g id="COLOR_black" data-name="COLOR/ black">
          <rect id="Rectangle" width="24" height="24" fill="#fff"/>
        </g>
      </g>
    </g>
  </g>
</svg>
