<svg id="camara" xmlns="http://www.w3.org/2000/svg" xmlns:xlink="http://www.w3.org/1999/xlink" width="123" height="162" viewBox="0 0 123 162">
  <defs>
    <clipPath id="clip-path">
      <path id="Clip_4" data-name="Clip 4" d="M85.786,48.73H9.253A9.26,9.26,0,0,1,0,39.483V9.246A9.26,9.26,0,0,1,9.253,0H85.786a9.26,9.26,0,0,1,9.253,9.246V39.483A9.261,9.261,0,0,1,85.786,48.73ZM9.253,1.381A7.877,7.877,0,0,0,1.381,9.246V39.483a7.878,7.878,0,0,0,7.871,7.866H85.786a7.878,7.878,0,0,0,7.872-7.866V9.246a7.877,7.877,0,0,0-7.872-7.865Z" transform="translate(0 0)" fill="none"/>
    </clipPath>
    <linearGradient id="linear-gradient" y1="0.5" x2="1" y2="0.5" gradientUnits="objectBoundingBox">
      <stop offset="0" stop-color="#7c72ff"/>
      <stop offset="1" stop-color="#6d64f4"/>
    </linearGradient>
    <clipPath id="clip-path-2">
      <path id="Clip_9" data-name="Clip 9" d="M31.8,63.564A31.782,31.782,0,1,1,63.6,31.782,31.825,31.825,0,0,1,31.8,63.564Zm0-62.183a30.4,30.4,0,1,0,30.416,30.4A30.443,30.443,0,0,0,31.8,1.381Z" transform="translate(0 0)" fill="none"/>
    </clipPath>
    <clipPath id="clip-path-3">
      <path id="Clip_14" data-name="Clip 14" d="M22.949,45.877A22.939,22.939,0,1,1,45.9,22.938,22.97,22.97,0,0,1,22.949,45.877Zm0-44.5A21.558,21.558,0,1,0,44.519,22.938,21.587,21.587,0,0,0,22.949,1.381Z" transform="translate(0 0)" fill="none"/>
    </clipPath>
    <clipPath id="clip-path-4">
      <path id="Clip_19" data-name="Clip 19" d="M5.835,11.664A5.832,5.832,0,1,1,11.67,5.832,5.84,5.84,0,0,1,5.835,11.664ZM5.835.61A5.222,5.222,0,1,0,11.06,5.832,5.229,5.229,0,0,0,5.835.61Z" transform="translate(0 0)" fill="none"/>
    </clipPath>
    <clipPath id="clip-path-5">
      <path id="Clip_24" data-name="Clip 24" d="M24.268,8.653H7.676A7.683,7.683,0,0,1,0,.981V.69A.692.692,0,0,1,.691,0H31.255a.691.691,0,0,1,.691.69V.981A7.684,7.684,0,0,1,24.268,8.653ZM1.394,1.381A6.3,6.3,0,0,0,7.676,7.273H24.268a6.3,6.3,0,0,0,6.284-5.893Z" transform="translate(0 0)" fill="none"/>
    </clipPath>
    <clipPath id="clip-path-6">
      <path id="Clip_27" data-name="Clip 27" d="M0,.69v47.5a.69.69,0,0,0,.691.69h0a.69.69,0,0,0,.691-.69h0V.69A.689.689,0,0,0,.691,0h0A.689.689,0,0,0,0,.69" fill="none"/>
    </clipPath>
    <linearGradient id="linear-gradient-6" x1="0" y1="0.5" x2="1" y2="0.5" xlink:href="#linear-gradient"/>
    <clipPath id="clip-path-7">
      <path id="Clip_30" data-name="Clip 30" d="M48.279.2.2,48.258a.689.689,0,0,0,0,.976h0a.688.688,0,0,0,.488.2h0a.688.688,0,0,0,.488-.2h0L49.255,1.178a.69.69,0,0,0,0-.976h0a.688.688,0,0,0-.488-.2h0a.688.688,0,0,0-.488.2" fill="none"/>
    </clipPath>
    <clipPath id="clip-path-8">
      <path id="Clip_33" data-name="Clip 33" d="M.2.2a.69.69,0,0,0,0,.976h0L48.279,49.235a.691.691,0,0,0,.489.2h0a.691.691,0,0,0,.488-.2h0a.69.69,0,0,0,0-.976h0L1.179.2A.688.688,0,0,0,.69,0h0A.688.688,0,0,0,.2.2" fill="none"/>
    </clipPath>
    <clipPath id="clip-path-9">
      <path id="Clip_36" data-name="Clip 36" d="M26.161,6.513H.691A.691.691,0,0,1,0,5.822V.69A.691.691,0,0,1,.691,0h25.47a.692.692,0,0,1,.691.69V5.822A.692.692,0,0,1,26.161,6.513ZM1.381,1.381v3.75H25.471V1.381Z" transform="translate(0 0)" fill="none"/>
    </clipPath>
    <clipPath id="clip-path-10">
      <path id="Clip_39" data-name="Clip 39" d="M5.935,6.513H.691A.691.691,0,0,1,0,5.822V.69A.691.691,0,0,1,.691,0H5.935a.691.691,0,0,1,.691.69V5.822A.691.691,0,0,1,5.935,6.513ZM1.381,1.381v3.75H5.245V1.381Z" transform="translate(0 0)" fill="none"/>
    </clipPath>
    <clipPath id="clip-path-11">
      <path id="Clip_42" data-name="Clip 42" d="M.691,0A.689.689,0,0,0,0,.69H0a.69.69,0,0,0,.691.69H26.161a.691.691,0,0,0,.691-.69h0A.69.69,0,0,0,26.161,0H.691Z" fill="none"/>
    </clipPath>
    <linearGradient id="linear-gradient-11" x1="0" y1="0.5" x2="1" y2="0.5" xlink:href="#linear-gradient"/>
    <clipPath id="clip-path-12">
      <path id="Clip_45" data-name="Clip 45" d="M.691,0A.69.69,0,0,0,0,.69H0a.69.69,0,0,0,.691.691h35A.69.69,0,0,0,36.377.69h0A.69.69,0,0,0,35.687,0h-35Z" fill="none"/>
    </clipPath>
    <clipPath id="clip-path-13">
      <path id="Clip_50" data-name="Clip 50" d="M12.265,31.11a.693.693,0,0,1-.345-.092L.345,24.337a.693.693,0,0,1-.345-.6V7.37a.7.7,0,0,1,.345-.6L11.92.092a.691.691,0,0,1,1.036.6V30.42a.69.69,0,0,1-.691.69Zm-.69-29.223L1.38,7.768V23.341l10.195,5.883Z" transform="translate(0 0)" fill="none"/>
    </clipPath>
    <clipPath id="clip-path-14">
      <path id="Clip_55" data-name="Clip 55" d="M5.525,40.489a.7.7,0,0,1-.346-.092L.345,37.6a.691.691,0,0,1-.345-.6V3.48a.69.69,0,0,1,.345-.6L5.179.092A.7.7,0,0,1,5.525,0a.69.69,0,0,1,.691.69V39.8a.69.69,0,0,1-.691.69Zm-.691-38.6L1.381,3.879v32.73L4.834,38.6Z" transform="translate(0 0)" fill="none"/>
    </clipPath>
    <clipPath id="clip-path-15">
      <path id="Clip_60" data-name="Clip 60" d="M20.637,21.143H5.393a.513.513,0,0,1-.471-.307A9.019,9.019,0,0,0,.308,16.225.517.517,0,0,1,0,15.753V.516A.522.522,0,0,1,.6.006a24.716,24.716,0,0,1,20.549,20.54.514.514,0,0,1-.511.6ZM1.033,1.129V15.423a10.029,10.029,0,0,1,2.744,1.946,10.049,10.049,0,0,1,1.947,2.743h14.3A23.557,23.557,0,0,0,1.033,1.129Z" transform="translate(0 0)" fill="none"/>
    </clipPath>
    <clipPath id="clip-path-16">
      <path id="Clip_65" data-name="Clip 65" d="M15.761,21.143H.518a.515.515,0,0,1-.511-.6A24.717,24.717,0,0,1,20.558.006.509.509,0,0,1,20.636,0a.526.526,0,0,1,.338.123.52.52,0,0,1,.181.394V15.753a.517.517,0,0,1-.307.471,9.014,9.014,0,0,0-4.614,4.611A.519.519,0,0,1,15.761,21.143ZM20.123,1.129A23.557,23.557,0,0,0,1.131,20.111h14.3a10.031,10.031,0,0,1,4.692-4.689Z" transform="translate(0 0)" fill="none"/>
    </clipPath>
    <clipPath id="clip-path-17">
      <path id="Clip_70" data-name="Clip 70" d="M20.639,21.145a.543.543,0,0,1-.081-.006A24.719,24.719,0,0,1,.006.6.518.518,0,0,1,.123.181.523.523,0,0,1,.518,0H15.761a.52.52,0,0,1,.473.307,9.013,9.013,0,0,0,4.614,4.612.516.516,0,0,1,.307.473V20.628a.515.515,0,0,1-.516.518ZM1.131,1.032A23.561,23.561,0,0,0,20.123,20.015V5.721a10.036,10.036,0,0,1-2.744-1.946,10.04,10.04,0,0,1-1.948-2.743Z" transform="translate(0 0)" fill="none"/>
    </clipPath>
    <clipPath id="clip-path-18">
      <path id="Clip_75" data-name="Clip 75" d="M.517,21.145A.516.516,0,0,1,0,20.628V5.392a.517.517,0,0,1,.308-.473A9.022,9.022,0,0,0,4.922.307.513.513,0,0,1,5.393,0H20.637a.523.523,0,0,1,.394.181A.522.522,0,0,1,21.148.6,24.719,24.719,0,0,1,.6,21.139.577.577,0,0,1,.517,21.145ZM5.725,1.032h0A10.046,10.046,0,0,1,3.777,3.775,10.035,10.035,0,0,1,1.033,5.721V20.015A23.557,23.557,0,0,0,20.024,1.032H5.725Z" transform="translate(0 0)" fill="none"/>
    </clipPath>
    <clipPath id="clip-path-19">
      <path id="Clip_80" data-name="Clip 80" d="M14.59,14.948H3.812a.364.364,0,0,1-.334-.217A6.366,6.366,0,0,0,.217,11.47.364.364,0,0,1,0,11.137V.365A.368.368,0,0,1,.128.086.373.373,0,0,1,.367,0,.356.356,0,0,1,.423,0,17.475,17.475,0,0,1,14.951,14.526a.364.364,0,0,1-.36.422ZM.731.8V10.9a7.14,7.14,0,0,1,3.316,3.314H14.156A16.653,16.653,0,0,0,.731.8Z" transform="translate(0 0)" fill="none"/>
    </clipPath>
    <clipPath id="clip-path-20">
      <path id="Clip_85" data-name="Clip 85" d="M11.143,14.948H.365A.366.366,0,0,1,0,14.526,17.476,17.476,0,0,1,14.533,0a.376.376,0,0,1,.295.082.367.367,0,0,1,.129.278V11.137a.365.365,0,0,1-.218.333,6.373,6.373,0,0,0-3.263,3.261A.365.365,0,0,1,11.143,14.948ZM14.226.8A16.653,16.653,0,0,0,.8,14.218h10.11A7.135,7.135,0,0,1,14.226,10.9Z" transform="translate(0 0)" fill="none"/>
    </clipPath>
    <clipPath id="clip-path-21">
      <path id="Clip_90" data-name="Clip 90" d="M14.591,14.95a.4.4,0,0,1-.058,0A17.475,17.475,0,0,1,0,.423.367.367,0,0,1,.365,0H11.143a.366.366,0,0,1,.334.218,6.376,6.376,0,0,0,3.263,3.261.367.367,0,0,1,.218.334V14.584a.366.366,0,0,1-.366.366ZM.8.73A16.658,16.658,0,0,0,14.226,14.152V4.045A7.128,7.128,0,0,1,10.909.73Z" transform="translate(0 0)" fill="none"/>
    </clipPath>
    <clipPath id="clip-path-22">
      <path id="Clip_95" data-name="Clip 95" d="M.364,14.95A.364.364,0,0,1,0,14.584V3.813a.366.366,0,0,1,.217-.334A6.369,6.369,0,0,0,3.478.218.364.364,0,0,1,3.812,0H14.59a.364.364,0,0,1,.36.423A17.474,17.474,0,0,1,.423,14.945.386.386,0,0,1,.364,14.95ZM4.047.73A7.135,7.135,0,0,1,.731,4.045V14.152A16.658,16.658,0,0,0,14.156.73Z" transform="translate(0 0)" fill="none"/>
    </clipPath>
  </defs>
  <g id="Group_97" data-name="Group 97" transform="translate(0 0.64)">
    <path id="Fill_1" data-name="Fill 1" d="M93.657,38.792A8.584,8.584,0,0,1,85.1,47.349H8.562A8.584,8.584,0,0,1,0,38.792V8.556A8.584,8.584,0,0,1,8.562,0H85.1a8.584,8.584,0,0,1,8.562,8.556Z" transform="translate(9.473 57.418)" fill="#fff"/>
    <g id="Group_5" data-name="Group 5" transform="translate(8.782 56.728)">
      <path id="Clip_4-2" data-name="Clip 4" d="M85.786,48.73H9.253A9.26,9.26,0,0,1,0,39.483V9.246A9.26,9.26,0,0,1,9.253,0H85.786a9.26,9.26,0,0,1,9.253,9.246V39.483A9.261,9.261,0,0,1,85.786,48.73ZM9.253,1.381A7.877,7.877,0,0,0,1.381,9.246V39.483a7.878,7.878,0,0,0,7.871,7.866H85.786a7.878,7.878,0,0,0,7.872-7.866V9.246a7.877,7.877,0,0,0-7.872-7.865Z" transform="translate(0 0)" fill="none"/>
      <g id="Group_5-2" data-name="Group 5" transform="translate(0 0)" clip-path="url(#clip-path)">
        <path id="Fill_3" data-name="Fill 3" d="M85.786,48.73H9.253A9.26,9.26,0,0,1,0,39.483V9.246A9.26,9.26,0,0,1,9.253,0H85.786a9.26,9.26,0,0,1,9.253,9.246V39.483A9.261,9.261,0,0,1,85.786,48.73ZM9.253,1.381A7.877,7.877,0,0,0,1.381,9.246V39.483a7.878,7.878,0,0,0,7.871,7.866H85.786a7.878,7.878,0,0,0,7.872-7.866V9.246a7.877,7.877,0,0,0-7.872-7.865Z" transform="translate(0 0)" fill="url(#linear-gradient)"/>
      </g>
    </g>
    <path id="Fill_6" data-name="Fill 6" d="M62.214,31.092A31.107,31.107,0,1,1,31.107,0,31.1,31.1,0,0,1,62.214,31.092" transform="translate(49.699 0.69)" fill="#fff"/>
    <g id="Group_10" data-name="Group 10" transform="translate(49.009 0)">
      <path id="Clip_9-2" data-name="Clip 9" d="M31.8,63.564A31.782,31.782,0,1,1,63.6,31.782,31.825,31.825,0,0,1,31.8,63.564Zm0-62.183a30.4,30.4,0,1,0,30.416,30.4A30.443,30.443,0,0,0,31.8,1.381Z" transform="translate(0 0)" fill="none"/>
      <g id="Group_10-2" data-name="Group 10" clip-path="url(#clip-path-2)">
        <path id="Fill_8" data-name="Fill 8" d="M31.8,63.564A31.782,31.782,0,1,1,63.6,31.782,31.825,31.825,0,0,1,31.8,63.564Zm0-62.183a30.4,30.4,0,1,0,30.416,30.4A30.443,30.443,0,0,0,31.8,1.381Z" transform="translate(0 0)" fill="url(#linear-gradient)"/>
      </g>
    </g>
    <path id="Fill_11" data-name="Fill 11" d="M44.519,22.249A22.259,22.259,0,1,1,22.259,0a22.255,22.255,0,0,1,22.26,22.249" transform="translate(0.691 18.376)" fill="#fff"/>
    <g id="Group_15" data-name="Group 15" transform="translate(0 17.686)">
      <path id="Clip_14-2" data-name="Clip 14" d="M22.949,45.877A22.939,22.939,0,1,1,45.9,22.938,22.97,22.97,0,0,1,22.949,45.877Zm0-44.5A21.558,21.558,0,1,0,44.519,22.938,21.587,21.587,0,0,0,22.949,1.381Z" transform="translate(0 0)" fill="none"/>
      <g id="Group_15-2" data-name="Group 15" transform="translate(0 0)" clip-path="url(#clip-path-3)">
        <path id="Fill_13" data-name="Fill 13" d="M22.949,45.877A22.939,22.939,0,1,1,45.9,22.938,22.97,22.97,0,0,1,22.949,45.877Zm0-44.5A21.558,21.558,0,1,0,44.519,22.938,21.587,21.587,0,0,0,22.949,1.381Z" transform="translate(0 0)" fill="url(#linear-gradient)"/>
      </g>
    </g>
    <path id="Fill_16" data-name="Fill 16" d="M11.06,5.527A5.53,5.53,0,1,1,5.53,0a5.528,5.528,0,0,1,5.53,5.527" transform="translate(75.276 26.255)" fill="#fff"/>
    <g id="Group_20" data-name="Group 20" transform="translate(74.972 25.949)">
      <path id="Clip_19-2" data-name="Clip 19" d="M5.835,11.664A5.832,5.832,0,1,1,11.67,5.832,5.84,5.84,0,0,1,5.835,11.664ZM5.835.61A5.222,5.222,0,1,0,11.06,5.832,5.229,5.229,0,0,0,5.835.61Z" transform="translate(0 0)" fill="none"/>
      <g id="Group_20-2" data-name="Group 20" transform="translate(0 0)" clip-path="url(#clip-path-4)">
        <path id="Fill_18" data-name="Fill 18" d="M5.835,11.664A5.832,5.832,0,1,1,11.67,5.832,5.84,5.84,0,0,1,5.835,11.664ZM5.835.61A5.222,5.222,0,1,0,11.06,5.832,5.229,5.229,0,0,0,5.835.61Z" transform="translate(0 0)" fill="url(#linear-gradient)"/>
      </g>
    </g>
    <path id="Fill_21" data-name="Fill 21" d="M0,0V.291A6.983,6.983,0,0,0,6.985,7.273H23.577A6.983,6.983,0,0,0,30.564.291V0Z" transform="translate(41.02 104.767)" fill="#fff"/>
    <g id="Group_25" data-name="Group 25" transform="translate(40.329 104.077)">
      <path id="Clip_24-2" data-name="Clip 24" d="M24.268,8.653H7.676A7.683,7.683,0,0,1,0,.981V.69A.692.692,0,0,1,.691,0H31.255a.691.691,0,0,1,.691.69V.981A7.684,7.684,0,0,1,24.268,8.653ZM1.394,1.381A6.3,6.3,0,0,0,7.676,7.273H24.268a6.3,6.3,0,0,0,6.284-5.893Z" transform="translate(0 0)" fill="none"/>
      <g id="Group_25-2" data-name="Group 25" transform="translate(0 0)" clip-path="url(#clip-path-5)">
        <path id="Fill_23" data-name="Fill 23" d="M24.268,8.653H7.676A7.683,7.683,0,0,1,0,.981V.69A.692.692,0,0,1,.691,0H31.255a.691.691,0,0,1,.691.69V.981A7.684,7.684,0,0,1,24.268,8.653ZM1.394,1.381A6.3,6.3,0,0,0,7.676,7.273H24.268a6.3,6.3,0,0,0,6.284-5.893Z" transform="translate(0 0)" fill="url(#linear-gradient)"/>
      </g>
    </g>
    <g id="Group_28" data-name="Group 28" transform="translate(55.611 111.35)">
      <path id="Clip_27-2" data-name="Clip 27" d="M0,.69v47.5a.69.69,0,0,0,.691.69h0a.69.69,0,0,0,.691-.69h0V.69A.689.689,0,0,0,.691,0h0A.689.689,0,0,0,0,.69" transform="translate(0 0)" fill="none"/>
      <g id="Group_28-2" data-name="Group 28" transform="translate(0 0)" clip-path="url(#clip-path-6)">
        <path id="Fill_26" data-name="Fill 26" d="M0,.69v47.5a.69.69,0,0,0,.691.69h0a.69.69,0,0,0,.691-.69h0V.69A.689.689,0,0,0,.691,0h0A.689.689,0,0,0,0,.69" fill="url(#linear-gradient-6)"/>
      </g>
    </g>
    <g id="Group_31" data-name="Group 31" transform="translate(7.534 111.35)">
      <path id="Clip_30-2" data-name="Clip 30" d="M48.279.2.2,48.258a.689.689,0,0,0,0,.976h0a.688.688,0,0,0,.488.2h0a.688.688,0,0,0,.488-.2h0L49.255,1.178a.69.69,0,0,0,0-.976h0a.688.688,0,0,0-.488-.2h0a.688.688,0,0,0-.488.2" transform="translate(0 0)" fill="none"/>
      <g id="Group_31-2" data-name="Group 31" transform="translate(0 0)" clip-path="url(#clip-path-7)">
        <path id="Fill_29" data-name="Fill 29" d="M48.279.2.2,48.258a.689.689,0,0,0,0,.976h0a.688.688,0,0,0,.488.2h0a.688.688,0,0,0,.488-.2h0L49.255,1.178a.69.69,0,0,0,0-.976h0a.688.688,0,0,0-.488-.2h0a.688.688,0,0,0-.488.2" fill="url(#linear-gradient)"/>
      </g>
    </g>
    <g id="Group_34" data-name="Group 34" transform="translate(55.611 111.35)">
      <path id="Clip_33-2" data-name="Clip 33" d="M.2.2a.69.69,0,0,0,0,.976h0L48.279,49.235a.691.691,0,0,0,.489.2h0a.691.691,0,0,0,.488-.2h0a.69.69,0,0,0,0-.976h0L1.179.2A.688.688,0,0,0,.69,0h0A.688.688,0,0,0,.2.2" transform="translate(0 0)" fill="none"/>
      <g id="Group_34-2" data-name="Group 34" transform="translate(0 0)" clip-path="url(#clip-path-8)">
        <path id="Fill_32" data-name="Fill 32" d="M.2.2a.69.69,0,0,0,0,.976h0L48.279,49.235a.691.691,0,0,0,.489.2h0a.691.691,0,0,0,.488-.2h0a.69.69,0,0,0,0-.976h0L1.179.2A.688.688,0,0,0,.69,0h0A.688.688,0,0,0,.2.2" fill="url(#linear-gradient)"/>
      </g>
    </g>
    <g id="Group_37" data-name="Group 37" transform="translate(17.569 91.386)">
      <path id="Clip_36-2" data-name="Clip 36" d="M26.161,6.513H.691A.691.691,0,0,1,0,5.822V.69A.691.691,0,0,1,.691,0h25.47a.692.692,0,0,1,.691.69V5.822A.692.692,0,0,1,26.161,6.513ZM1.381,1.381v3.75H25.471V1.381Z" transform="translate(0 0)" fill="none"/>
      <g id="Group_37-2" data-name="Group 37" transform="translate(0 0)" clip-path="url(#clip-path-9)">
        <path id="Fill_35" data-name="Fill 35" d="M26.161,6.513H.691A.691.691,0,0,1,0,5.822V.69A.691.691,0,0,1,.691,0h25.47a.692.692,0,0,1,.691.69V5.822A.692.692,0,0,1,26.161,6.513ZM1.381,1.381v3.75H25.471V1.381Z" transform="translate(0 0)" fill="url(#linear-gradient)"/>
      </g>
    </g>
    <g id="Group_40" data-name="Group 40" transform="translate(47.32 91.386)">
      <path id="Clip_39-2" data-name="Clip 39" d="M5.935,6.513H.691A.691.691,0,0,1,0,5.822V.69A.691.691,0,0,1,.691,0H5.935a.691.691,0,0,1,.691.69V5.822A.691.691,0,0,1,5.935,6.513ZM1.381,1.381v3.75H5.245V1.381Z" transform="translate(0 0)" fill="none"/>
      <g id="Group_40-2" data-name="Group 40" transform="translate(0 0)" clip-path="url(#clip-path-10)">
        <path id="Fill_38" data-name="Fill 38" d="M5.935,6.513H.691A.691.691,0,0,1,0,5.822V.69A.691.691,0,0,1,.691,0H5.935a.691.691,0,0,1,.691.69V5.822A.691.691,0,0,1,5.935,6.513ZM1.381,1.381v3.75H5.245V1.381Z" transform="translate(0 0)" fill="url(#linear-gradient)"/>
      </g>
    </g>
    <g id="Group_43" data-name="Group 43" transform="translate(17.568 83.683)">
      <path id="Clip_42-2" data-name="Clip 42" d="M.691,0A.689.689,0,0,0,0,.69H0a.69.69,0,0,0,.691.69H26.161a.691.691,0,0,0,.691-.69h0A.69.69,0,0,0,26.161,0H.691Z" transform="translate(0 0)" fill="none"/>
      <g id="Group_43-2" data-name="Group 43" transform="translate(0 0)" clip-path="url(#clip-path-11)">
        <path id="Fill_41" data-name="Fill 41" d="M.691,0A.689.689,0,0,0,0,.69H0a.69.69,0,0,0,.691.69H26.161a.691.691,0,0,0,.691-.69h0A.69.69,0,0,0,26.161,0H.691Z" fill="url(#linear-gradient-11)"/>
      </g>
    </g>
    <g id="Group_46" data-name="Group 46" transform="translate(17.568 76.694)">
      <path id="Clip_45-2" data-name="Clip 45" d="M.691,0A.69.69,0,0,0,0,.69H0a.69.69,0,0,0,.691.691h35A.69.69,0,0,0,36.377.69h0A.69.69,0,0,0,35.687,0h-35Z" transform="translate(0 0)" fill="none"/>
      <g id="Group_46-2" data-name="Group 46" transform="translate(0 0)" clip-path="url(#clip-path-12)">
        <path id="Fill_44" data-name="Fill 44" d="M.691,0A.69.69,0,0,0,0,.69H0a.69.69,0,0,0,.691.691h35A.69.69,0,0,0,36.377.69h0A.69.69,0,0,0,35.687,0h-35Z" fill="url(#linear-gradient-11)"/>
      </g>
    </g>
    <path id="Fill_47" data-name="Fill 47" d="M0,6.68V23.049l11.575,6.68V0Z" transform="translate(105.873 66.227)" fill="#fff"/>
    <g id="Group_51" data-name="Group 51" transform="translate(105.182 65.538)">
      <path id="Clip_50-2" data-name="Clip 50" d="M12.265,31.11a.693.693,0,0,1-.345-.092L.345,24.337a.693.693,0,0,1-.345-.6V7.37a.7.7,0,0,1,.345-.6L11.92.092a.691.691,0,0,1,1.036.6V30.42a.69.69,0,0,1-.691.69Zm-.69-29.223L1.38,7.768V23.341l10.195,5.883Z" transform="translate(0 0)" fill="none"/>
      <g id="Group_51-2" data-name="Group 51" transform="translate(0 0)" clip-path="url(#clip-path-13)">
        <path id="Fill_49" data-name="Fill 49" d="M12.265,31.11a.693.693,0,0,1-.345-.092L.345,24.337a.693.693,0,0,1-.345-.6V7.37a.7.7,0,0,1,.345-.6L11.92.092a.691.691,0,0,1,1.036.6V30.42a.69.69,0,0,1-.691.69Zm-.69-29.223L1.38,7.768V23.341l10.195,5.883Z" transform="translate(0 0)" fill="url(#linear-gradient)"/>
      </g>
    </g>
    <path id="Fill_52" data-name="Fill 52" d="M0,2.79V36.317l4.835,2.791V0Z" transform="translate(117.447 61.538)" fill="#fff"/>
    <g id="Group_56" data-name="Group 56" transform="translate(116.757 60.848)">
      <path id="Clip_55-2" data-name="Clip 55" d="M5.525,40.489a.7.7,0,0,1-.346-.092L.345,37.6a.691.691,0,0,1-.345-.6V3.48a.69.69,0,0,1,.345-.6L5.179.092A.7.7,0,0,1,5.525,0a.69.69,0,0,1,.691.69V39.8a.69.69,0,0,1-.691.69Zm-.691-38.6L1.381,3.879v32.73L4.834,38.6Z" transform="translate(0 0)" fill="none"/>
      <g id="Group_56-2" data-name="Group 56" transform="translate(0 0)" clip-path="url(#clip-path-14)">
        <path id="Fill_54" data-name="Fill 54" d="M5.525,40.489a.7.7,0,0,1-.346-.092L.345,37.6a.691.691,0,0,1-.345-.6V3.48a.69.69,0,0,1,.345-.6L5.179.092A.7.7,0,0,1,5.525,0a.69.69,0,0,1,.691.69V39.8a.69.69,0,0,1-.691.69Zm-.691-38.6L1.381,3.879v32.73L4.834,38.6Z" transform="translate(0 0)" fill="url(#linear-gradient-6)"/>
      </g>
    </g>
    <path id="Fill_57" data-name="Fill 57" d="M0,0V15.236a9.559,9.559,0,0,1,4.876,4.875H20.121A24.324,24.324,0,0,0,0,0" transform="translate(84.733 7.746)" fill="#fff"/>
    <g id="Group_61" data-name="Group 61" transform="translate(84.216 7.23)">
      <path id="Clip_60-2" data-name="Clip 60" d="M20.637,21.143H5.393a.513.513,0,0,1-.471-.307A9.019,9.019,0,0,0,.308,16.225.517.517,0,0,1,0,15.753V.516A.522.522,0,0,1,.6.006a24.716,24.716,0,0,1,20.549,20.54.514.514,0,0,1-.511.6ZM1.033,1.129V15.423a10.029,10.029,0,0,1,2.744,1.946,10.049,10.049,0,0,1,1.947,2.743h14.3A23.557,23.557,0,0,0,1.033,1.129Z" transform="translate(0 0)" fill="none"/>
      <g id="Group_61-2" data-name="Group 61" transform="translate(0 0)" clip-path="url(#clip-path-15)">
        <path id="Fill_59" data-name="Fill 59" d="M20.637,21.143H5.393a.513.513,0,0,1-.471-.307A9.019,9.019,0,0,0,.308,16.225.517.517,0,0,1,0,15.753V.516A.522.522,0,0,1,.6.006a24.716,24.716,0,0,1,20.549,20.54.514.514,0,0,1-.511.6ZM1.033,1.129V15.423a10.029,10.029,0,0,1,2.744,1.946,10.049,10.049,0,0,1,1.947,2.743h14.3A23.557,23.557,0,0,0,1.033,1.129Z" transform="translate(0 0)" fill="url(#linear-gradient)"/>
      </g>
    </g>
    <path id="Fill_62" data-name="Fill 62" d="M20.122,0A24.325,24.325,0,0,0,0,20.111H15.244a9.568,9.568,0,0,1,4.878-4.875Z" transform="translate(56.759 7.746)" fill="#fff"/>
    <g id="Group_66" data-name="Group 66" transform="translate(56.242 7.23)">
      <path id="Clip_65-2" data-name="Clip 65" d="M15.761,21.143H.518a.515.515,0,0,1-.511-.6A24.717,24.717,0,0,1,20.558.006.509.509,0,0,1,20.636,0a.526.526,0,0,1,.338.123.52.52,0,0,1,.181.394V15.753a.517.517,0,0,1-.307.471,9.014,9.014,0,0,0-4.614,4.611A.519.519,0,0,1,15.761,21.143ZM20.123,1.129A23.557,23.557,0,0,0,1.131,20.111h14.3a10.031,10.031,0,0,1,4.692-4.689Z" transform="translate(0 0)" fill="none"/>
      <g id="Group_66-2" data-name="Group 66" transform="translate(0 0)" clip-path="url(#clip-path-16)">
        <path id="Fill_64" data-name="Fill 64" d="M15.761,21.143H.518a.515.515,0,0,1-.511-.6A24.717,24.717,0,0,1,20.558.006.509.509,0,0,1,20.636,0a.526.526,0,0,1,.338.123.52.52,0,0,1,.181.394V15.753a.517.517,0,0,1-.307.471,9.014,9.014,0,0,0-4.614,4.611A.519.519,0,0,1,15.761,21.143ZM20.123,1.129A23.557,23.557,0,0,0,1.131,20.111h14.3a10.031,10.031,0,0,1,4.692-4.689Z" transform="translate(0 0)" fill="url(#linear-gradient)"/>
      </g>
    </g>
    <path id="Fill_67" data-name="Fill 67" d="M15.244,0H0A24.326,24.326,0,0,0,20.122,20.112V4.875A9.569,9.569,0,0,1,15.244,0" transform="translate(56.759 35.705)" fill="#fff"/>
    <g id="Group_71" data-name="Group 71" transform="translate(56.242 35.189)">
      <path id="Clip_70-2" data-name="Clip 70" d="M20.639,21.145a.543.543,0,0,1-.081-.006A24.719,24.719,0,0,1,.006.6.518.518,0,0,1,.123.181.523.523,0,0,1,.518,0H15.761a.52.52,0,0,1,.473.307,9.013,9.013,0,0,0,4.614,4.612.516.516,0,0,1,.307.473V20.628a.515.515,0,0,1-.516.518ZM1.131,1.032A23.561,23.561,0,0,0,20.123,20.015V5.721a10.036,10.036,0,0,1-2.744-1.946,10.04,10.04,0,0,1-1.948-2.743Z" transform="translate(0 0)" fill="none"/>
      <g id="Group_71-2" data-name="Group 71" transform="translate(0 0)" clip-path="url(#clip-path-17)">
        <path id="Fill_69" data-name="Fill 69" d="M20.639,21.145a.543.543,0,0,1-.081-.006A24.719,24.719,0,0,1,.006.6.518.518,0,0,1,.123.181.523.523,0,0,1,.518,0H15.761a.52.52,0,0,1,.473.307,9.013,9.013,0,0,0,4.614,4.612.516.516,0,0,1,.307.473V20.628a.515.515,0,0,1-.516.518ZM1.131,1.032A23.561,23.561,0,0,0,20.123,20.015V5.721a10.036,10.036,0,0,1-2.744-1.946,10.04,10.04,0,0,1-1.948-2.743Z" transform="translate(0 0)" fill="url(#linear-gradient)"/>
      </g>
    </g>
    <path id="Fill_72" data-name="Fill 72" d="M0,20.112A24.326,24.326,0,0,0,20.121,0H4.876A9.558,9.558,0,0,1,0,4.875Z" transform="translate(84.733 35.704)" fill="#fff"/>
    <g id="Group_76" data-name="Group 76" transform="translate(84.216 35.189)">
      <path id="Clip_75-2" data-name="Clip 75" d="M.517,21.145A.516.516,0,0,1,0,20.628V5.392a.517.517,0,0,1,.308-.473A9.022,9.022,0,0,0,4.922.307.513.513,0,0,1,5.393,0H20.637a.523.523,0,0,1,.394.181A.522.522,0,0,1,21.148.6,24.719,24.719,0,0,1,.6,21.139.577.577,0,0,1,.517,21.145ZM5.725,1.032h0A10.046,10.046,0,0,1,3.777,3.775,10.035,10.035,0,0,1,1.033,5.721V20.015A23.557,23.557,0,0,0,20.024,1.032H5.725Z" transform="translate(0 0)" fill="none"/>
      <g id="Group_76-2" data-name="Group 76" transform="translate(0 0)" clip-path="url(#clip-path-18)">
        <path id="Fill_74" data-name="Fill 74" d="M.517,21.145A.516.516,0,0,1,0,20.628V5.392a.517.517,0,0,1,.308-.473A9.022,9.022,0,0,0,4.922.307.513.513,0,0,1,5.393,0H20.637a.523.523,0,0,1,.394.181A.522.522,0,0,1,21.148.6,24.719,24.719,0,0,1,.6,21.139.577.577,0,0,1,.517,21.145ZM5.725,1.032h0A10.046,10.046,0,0,1,3.777,3.775,10.035,10.035,0,0,1,1.033,5.721V20.015A23.557,23.557,0,0,0,20.024,1.032H5.725Z" transform="translate(0 0)" fill="url(#linear-gradient)"/>
      </g>
    </g>
    <path id="Fill_77" data-name="Fill 77" d="M0,0V10.772a6.756,6.756,0,0,1,3.448,3.446H14.226A17.2,17.2,0,0,0,0,0" transform="translate(25.926 23.753)" fill="#fff"/>
    <g id="Group_81" data-name="Group 81" transform="translate(25.561 23.388)">
      <path id="Clip_80-2" data-name="Clip 80" d="M14.59,14.948H3.812a.364.364,0,0,1-.334-.217A6.366,6.366,0,0,0,.217,11.47.364.364,0,0,1,0,11.137V.365A.368.368,0,0,1,.128.086.373.373,0,0,1,.367,0,.356.356,0,0,1,.423,0,17.475,17.475,0,0,1,14.951,14.526a.364.364,0,0,1-.36.422ZM.731.8V10.9a7.14,7.14,0,0,1,3.316,3.314H14.156A16.653,16.653,0,0,0,.731.8Z" transform="translate(0 0)" fill="none"/>
      <g id="Group_81-2" data-name="Group 81" transform="translate(0 0)" clip-path="url(#clip-path-19)">
        <path id="Fill_79" data-name="Fill 79" d="M14.59,14.948H3.812a.364.364,0,0,1-.334-.217A6.366,6.366,0,0,0,.217,11.47.364.364,0,0,1,0,11.137V.365A.368.368,0,0,1,.128.086.373.373,0,0,1,.367,0,.356.356,0,0,1,.423,0,17.475,17.475,0,0,1,14.951,14.526a.364.364,0,0,1-.36.422ZM.731.8V10.9a7.14,7.14,0,0,1,3.316,3.314H14.156A16.653,16.653,0,0,0,.731.8Z" transform="translate(0 0)" fill="url(#linear-gradient)"/>
      </g>
    </g>
    <path id="Fill_82" data-name="Fill 82" d="M14.226,0A17.2,17.2,0,0,0,0,14.218H10.778a6.76,6.76,0,0,1,3.448-3.446Z" transform="translate(6.149 23.753)" fill="#fff"/>
    <g id="Group_86" data-name="Group 86" transform="translate(5.784 23.388)">
      <path id="Clip_85-2" data-name="Clip 85" d="M11.143,14.948H.365A.366.366,0,0,1,0,14.526,17.476,17.476,0,0,1,14.533,0a.376.376,0,0,1,.295.082.367.367,0,0,1,.129.278V11.137a.365.365,0,0,1-.218.333,6.373,6.373,0,0,0-3.263,3.261A.365.365,0,0,1,11.143,14.948ZM14.226.8A16.653,16.653,0,0,0,.8,14.218h10.11A7.135,7.135,0,0,1,14.226,10.9Z" transform="translate(0 0)" fill="none"/>
      <g id="Group_86-2" data-name="Group 86" transform="translate(0 0)" clip-path="url(#clip-path-20)">
        <path id="Fill_84" data-name="Fill 84" d="M11.143,14.948H.365A.366.366,0,0,1,0,14.526,17.476,17.476,0,0,1,14.533,0a.376.376,0,0,1,.295.082.367.367,0,0,1,.129.278V11.137a.365.365,0,0,1-.218.333,6.373,6.373,0,0,0-3.263,3.261A.365.365,0,0,1,11.143,14.948ZM14.226.8A16.653,16.653,0,0,0,.8,14.218h10.11A7.135,7.135,0,0,1,14.226,10.9Z" transform="translate(0 0)" fill="url(#linear-gradient)"/>
      </g>
    </g>
    <path id="Fill_87" data-name="Fill 87" d="M10.777,0H0A17.2,17.2,0,0,0,14.226,14.219V3.447A6.763,6.763,0,0,1,10.777,0" transform="translate(6.149 43.52)" fill="#fff"/>
    <g id="Group_91" data-name="Group 91" transform="translate(5.784 43.154)">
      <path id="Clip_90-2" data-name="Clip 90" d="M14.591,14.95a.4.4,0,0,1-.058,0A17.475,17.475,0,0,1,0,.423.367.367,0,0,1,.365,0H11.143a.366.366,0,0,1,.334.218,6.376,6.376,0,0,0,3.263,3.261.367.367,0,0,1,.218.334V14.584a.366.366,0,0,1-.366.366ZM.8.73A16.658,16.658,0,0,0,14.226,14.152V4.045A7.128,7.128,0,0,1,10.909.73Z" transform="translate(0 0)" fill="none"/>
      <g id="Group_91-2" data-name="Group 91" transform="translate(0 0)" clip-path="url(#clip-path-21)">
        <path id="Fill_89" data-name="Fill 89" d="M14.591,14.95a.4.4,0,0,1-.058,0A17.475,17.475,0,0,1,0,.423.367.367,0,0,1,.365,0H11.143a.366.366,0,0,1,.334.218,6.376,6.376,0,0,0,3.263,3.261.367.367,0,0,1,.218.334V14.584a.366.366,0,0,1-.366.366ZM.8.73A16.658,16.658,0,0,0,14.226,14.152V4.045A7.128,7.128,0,0,1,10.909.73Z" transform="translate(0 0)" fill="url(#linear-gradient)"/>
      </g>
    </g>
    <path id="Fill_92" data-name="Fill 92" d="M0,14.219A17.2,17.2,0,0,0,14.226,0H3.448A6.76,6.76,0,0,1,0,3.447Z" transform="translate(25.926 43.52)" fill="#fff"/>
    <g id="Group_96" data-name="Group 96" transform="translate(25.561 43.154)">
      <path id="Clip_95-2" data-name="Clip 95" d="M.364,14.95A.364.364,0,0,1,0,14.584V3.813a.366.366,0,0,1,.217-.334A6.369,6.369,0,0,0,3.478.218.364.364,0,0,1,3.812,0H14.59a.364.364,0,0,1,.36.423A17.474,17.474,0,0,1,.423,14.945.386.386,0,0,1,.364,14.95ZM4.047.73A7.135,7.135,0,0,1,.731,4.045V14.152A16.658,16.658,0,0,0,14.156.73Z" transform="translate(0 0)" fill="none"/>
      <g id="Group_96-2" data-name="Group 96" transform="translate(0 0)" clip-path="url(#clip-path-22)">
        <path id="Fill_94" data-name="Fill 94" d="M.364,14.95A.364.364,0,0,1,0,14.584V3.813a.366.366,0,0,1,.217-.334A6.369,6.369,0,0,0,3.478.218.364.364,0,0,1,3.812,0H14.59a.364.364,0,0,1,.36.423A17.474,17.474,0,0,1,.423,14.945.386.386,0,0,1,.364,14.95ZM4.047.73A7.135,7.135,0,0,1,.731,4.045V14.152A16.658,16.658,0,0,0,14.156.73Z" transform="translate(0 0)" fill="url(#linear-gradient)"/>
      </g>
    </g>
  </g>
</svg>
