<svg id="icon-max-normal" xmlns="http://www.w3.org/2000/svg" xmlns:xlink="http://www.w3.org/1999/xlink" width="32" height="32" viewBox="0 0 32 32">
  <defs>
    <clipPath id="clip-path">
      <path id="Combined_Shape" data-name="Combined Shape" d="M.833,16.667a.833.833,0,0,1-.672-.341h0L.149,16.31v0l-.01-.015v0l-.01-.016h0l-.01-.017h0A.829.829,0,0,1,0,15.834v-5a.833.833,0,1,1,1.667,0v2.988L6.078,9.41a.833.833,0,0,1,1.178,1.179L2.845,15H5.833a.833.833,0,1,1,0,1.667ZM9.41,7.256a.834.834,0,0,1,0-1.178l4.411-4.411H10.833a.833.833,0,1,1,0-1.667h5a.829.829,0,0,1,.423.115h0l.017.01h0l.016.01h0l.015.01h0l.016.011h0a.833.833,0,0,1,.341.672v5a.833.833,0,1,1-1.667,0V2.845L10.589,7.256a.833.833,0,0,1-1.179,0Z" transform="translate(7.667 7.667)" fill="rgba(87,46,229,0.7)"/>
    </clipPath>
  </defs>
  <rect id="Rectangle_Copy_2" data-name="Rectangle Copy 2" width="32" height="32" rx="6" fill="#fff" opacity="0.7"/>
  <path id="Combined_Shape-2" data-name="Combined Shape" d="M.833,16.667a.833.833,0,0,1-.672-.341h0L.149,16.31v0l-.01-.015v0l-.01-.016h0l-.01-.017h0A.829.829,0,0,1,0,15.834v-5a.833.833,0,1,1,1.667,0v2.988L6.078,9.41a.833.833,0,0,1,1.178,1.179L2.845,15H5.833a.833.833,0,1,1,0,1.667ZM9.41,7.256a.834.834,0,0,1,0-1.178l4.411-4.411H10.833a.833.833,0,1,1,0-1.667h5a.829.829,0,0,1,.423.115h0l.017.01h0l.016.01h0l.015.01h0l.016.011h0a.833.833,0,0,1,.341.672v5a.833.833,0,1,1-1.667,0V2.845L10.589,7.256a.833.833,0,0,1-1.179,0Z" transform="translate(7.667 7.667)" fill="rgba(87,46,229,0.7)"/>
</svg>
