<svg id="icon-trash-hover" xmlns="http://www.w3.org/2000/svg" xmlns:xlink="http://www.w3.org/1999/xlink" width="32" height="32" viewBox="0 0 32 32">
  <defs>
    <clipPath id="clip-path">
      <path id="Combined_Shape" data-name="Combined Shape" d="M4.167,18.333a2.5,2.5,0,0,1-2.5-2.5V5H.833a.833.833,0,1,1,0-1.667H4.167V2.5A2.5,2.5,0,0,1,6.666,0H10a2.5,2.5,0,0,1,2.5,2.5v.833h3.334a.833.833,0,1,1,0,1.667H15V15.834a2.5,2.5,0,0,1-2.5,2.5Zm-.833-2.5a.833.833,0,0,0,.833.833H12.5a.834.834,0,0,0,.833-.833V5h-10Zm7.5-12.5V2.5A.833.833,0,0,0,10,1.667H6.666a.833.833,0,0,0-.833.833v.833Zm-1.667,10v-5a.833.833,0,1,1,1.667,0v5a.833.833,0,1,1-1.667,0Zm-3.334,0v-5a.833.833,0,1,1,1.667,0v5a.833.833,0,1,1-1.667,0Z" transform="translate(8 7)" fill="#572ee5"/>
    </clipPath>
  </defs>
  <rect id="Rectangle_Copy_6" data-name="Rectangle Copy 6" width="32" height="32" rx="6" fill="#fff"/>
  <path id="Combined_Shape-2" data-name="Combined Shape" d="M4.167,18.333a2.5,2.5,0,0,1-2.5-2.5V5H.833a.833.833,0,1,1,0-1.667H4.167V2.5A2.5,2.5,0,0,1,6.666,0H10a2.5,2.5,0,0,1,2.5,2.5v.833h3.334a.833.833,0,1,1,0,1.667H15V15.834a2.5,2.5,0,0,1-2.5,2.5Zm-.833-2.5a.833.833,0,0,0,.833.833H12.5a.834.834,0,0,0,.833-.833V5h-10Zm7.5-12.5V2.5A.833.833,0,0,0,10,1.667H6.666a.833.833,0,0,0-.833.833v.833Zm-1.667,10v-5a.833.833,0,1,1,1.667,0v5a.833.833,0,1,1-1.667,0Zm-3.334,0v-5a.833.833,0,1,1,1.667,0v5a.833.833,0,1,1-1.667,0Z" transform="translate(8 7)" fill="#572ee5"/>
</svg>
