<svg id="icon-download" xmlns="http://www.w3.org/2000/svg" xmlns:xlink="http://www.w3.org/1999/xlink" width="32" height="32" viewBox="0 0 32 32">
  <defs>
    <clipPath id="clip-path">
      <path id="Combined_Shape" data-name="Combined Shape" d="M2.5,18.333a2.5,2.5,0,0,1-2.5-2.5v-2.5a.833.833,0,0,1,1.667,0v2.5a.833.833,0,0,0,.833.833H14.167A.834.834,0,0,0,15,15.834v-2.5a.833.833,0,0,1,1.667,0v2.5a2.5,2.5,0,0,1-2.5,2.5Zm5.446-5.095h0l-.016-.008,0,0-.014-.008,0,0L7.9,13.209l-.005,0L7.878,13.2l-.005,0-.013-.008,0,0-.014-.01,0,0-.016-.012h0a.84.84,0,0,1-.09-.08L4.411,9.756A.833.833,0,0,1,5.589,8.577L7.5,10.488V.833a.833.833,0,1,1,1.667,0v9.654l1.911-1.911a.834.834,0,0,1,1.179,1.179L8.923,13.09a.837.837,0,0,1-.157.123h0l-.015.009,0,0-.012.007-.009,0-.008,0-.013.007,0,0a.834.834,0,0,1-.755-.01Z" transform="translate(7.667 6.833)" fill="rgba(87,46,229,0.7)"/>
    </clipPath>
  </defs>
  <rect id="Rectangle_Copy" data-name="Rectangle Copy" width="32" height="32" rx="6" fill="#fff" opacity="0.7"/>
  <path id="Combined_Shape-2" data-name="Combined Shape" d="M2.5,18.333a2.5,2.5,0,0,1-2.5-2.5v-2.5a.833.833,0,0,1,1.667,0v2.5a.833.833,0,0,0,.833.833H14.167A.834.834,0,0,0,15,15.834v-2.5a.833.833,0,0,1,1.667,0v2.5a2.5,2.5,0,0,1-2.5,2.5Zm5.446-5.095h0l-.016-.008,0,0-.014-.008,0,0L7.9,13.209l-.005,0L7.878,13.2l-.005,0-.013-.008,0,0-.014-.01,0,0-.016-.012h0a.84.84,0,0,1-.09-.08L4.411,9.756A.833.833,0,0,1,5.589,8.577L7.5,10.488V.833a.833.833,0,1,1,1.667,0v9.654l1.911-1.911a.834.834,0,0,1,1.179,1.179L8.923,13.09a.837.837,0,0,1-.157.123h0l-.015.009,0,0-.012.007-.009,0-.008,0-.013.007,0,0a.834.834,0,0,1-.755-.01Z" transform="translate(7.667 6.833)" fill="rgba(87,46,229,0.7)"/>
</svg>
