<svg id="loader" xmlns="http://www.w3.org/2000/svg" xmlns:xlink="http://www.w3.org/1999/xlink" width="24" height="24" viewBox="0 0 24 24">
  <defs>
    <clipPath id="clip-path">
      <path id="Combined_Shape" data-name="Combined Shape" d="M10,21V17a1,1,0,1,1,2,0v4a1,1,0,1,1-2,0Zm7.363-2.223-2.83-2.83a1,1,0,0,1,1.414-1.414l2.83,2.83a1,1,0,1,1-1.414,1.414Zm-14.14,0a1,1,0,0,1,0-1.414l2.83-2.83a1,1,0,0,1,1.415,1.414l-2.831,2.83a1,1,0,0,1-1.414,0ZM17,12a1,1,0,1,1,0-2h4a1,1,0,1,1,0,2ZM1,12a1,1,0,0,1,0-2H5a1,1,0,0,1,0,2ZM14.533,7.467a1,1,0,0,1,0-1.415l2.83-2.83a1,1,0,1,1,1.414,1.414l-2.83,2.831a1,1,0,0,1-1.414,0Zm-8.481,0L3.223,4.637A1,1,0,0,1,4.637,3.223l2.831,2.83A1,1,0,0,1,6.053,7.467ZM10,5V1a1,1,0,0,1,2,0V5a1,1,0,0,1-2,0Z" transform="translate(1 1)"/>
    </clipPath>
  </defs>
  <g id="Grupo_50" data-name="Grupo 50">
    <path id="Combined_Shape-2" data-name="Combined Shape" d="M10,21V17a1,1,0,1,1,2,0v4a1,1,0,1,1-2,0Zm7.363-2.223-2.83-2.83a1,1,0,0,1,1.414-1.414l2.83,2.83a1,1,0,1,1-1.414,1.414Zm-14.14,0a1,1,0,0,1,0-1.414l2.83-2.83a1,1,0,0,1,1.415,1.414l-2.831,2.83a1,1,0,0,1-1.414,0ZM17,12a1,1,0,1,1,0-2h4a1,1,0,1,1,0,2ZM1,12a1,1,0,0,1,0-2H5a1,1,0,0,1,0,2ZM14.533,7.467a1,1,0,0,1,0-1.415l2.83-2.83a1,1,0,1,1,1.414,1.414l-2.83,2.831a1,1,0,0,1-1.414,0Zm-8.481,0L3.223,4.637A1,1,0,0,1,4.637,3.223l2.831,2.83A1,1,0,0,1,6.053,7.467ZM10,5V1a1,1,0,0,1,2,0V5a1,1,0,0,1-2,0Z" transform="translate(1 1)"/>
    <g id="Enmascarar_grupo_55" data-name="Enmascarar grupo 55" clip-path="url(#clip-path)">
      <g id="COLOR_black" data-name="COLOR/ black">
        <rect id="Rectangle" width="24" height="24" fill="#50e3c2"/>
      </g>
    </g>
  </g>
</svg>
