<svg id="pelicula" xmlns="http://www.w3.org/2000/svg" xmlns:xlink="http://www.w3.org/1999/xlink" width="142" height="88" viewBox="0 0 142 88">
  <defs>
    <clipPath id="clip-path">
      <path id="Clip_2" data-name="Clip 2" d="M.612,0A.612.612,0,0,0,0,.612H0a.611.611,0,0,0,.612.612H14.837c7.507,0,13.613,6.544,13.613,14.589h0V28.359A15.835,15.835,0,0,0,44.27,44.172H67.085a.612.612,0,0,0,.613-.612h0a.612.612,0,0,0-.613-.612H44.27a14.609,14.609,0,0,1-14.6-14.589h0V15.813C29.675,7.093,23.019,0,14.837,0H.612Z" transform="translate(0 0)" fill="none"/>
    </clipPath>
    <linearGradient id="linear-gradient" y1="0.5" x2="1" y2="0.5" gradientUnits="objectBoundingBox">
      <stop offset="0" stop-color="#7c72ff"/>
      <stop offset="1" stop-color="#6d64f4"/>
    </linearGradient>
    <clipPath id="clip-path-2">
      <path id="Clip_7" data-name="Clip 7" d="M43.581,87.119A43.56,43.56,0,1,1,87.16,43.559,43.62,43.62,0,0,1,43.581,87.119Zm0-85.895A42.335,42.335,0,1,0,85.935,43.559,42.393,42.393,0,0,0,43.581,1.225Zm0,76.268A33.933,33.933,0,1,1,77.527,43.559,33.979,33.979,0,0,1,43.581,77.493Zm0-66.641A32.709,32.709,0,1,0,76.3,43.559,32.752,32.752,0,0,0,43.581,10.851Z" transform="translate(0 0)" fill="none"/>
    </clipPath>
    <clipPath id="clip-path-3">
      <path id="Clip_12" data-name="Clip 12" d="M33.948,67.866A33.933,33.933,0,1,1,67.893,33.932,33.979,33.979,0,0,1,33.948,67.866Zm0-66.641A32.709,32.709,0,1,0,66.667,33.932,32.752,32.752,0,0,0,33.948,1.224Zm4.628,61.832a.612.612,0,0,1-.612-.613V44.384a.614.614,0,0,1,.366-.56A10.679,10.679,0,0,0,43.8,38.358a.611.611,0,0,1,.56-.364H62.424a.613.613,0,0,1,.606.708A29.3,29.3,0,0,1,38.673,63.049.676.676,0,0,1,38.576,63.056Zm6.172-23.839h0a11.9,11.9,0,0,1-5.56,5.557V61.718A27.922,27.922,0,0,0,61.7,39.218H44.748ZM29.271,63.056a.676.676,0,0,1-.1-.007A29.3,29.3,0,0,1,4.817,38.7a.613.613,0,0,1,.606-.708H23.489a.614.614,0,0,1,.559.364,10.687,10.687,0,0,0,5.469,5.466.614.614,0,0,1,.366.56v18.06a.611.611,0,0,1-.612.613ZM6.149,39.218h0a27.925,27.925,0,0,0,22.509,22.5V44.775A11.9,11.9,0,0,1,23.1,39.218H6.149ZM33.948,42a8.064,8.064,0,1,1,8.067-8.065A8.076,8.076,0,0,1,33.948,42Zm0-14.9a6.84,6.84,0,1,0,6.842,6.839A6.849,6.849,0,0,0,33.948,27.093Zm28.476,2.824H44.356a.61.61,0,0,1-.56-.364,10.678,10.678,0,0,0-5.467-5.466.614.614,0,0,1-.366-.56V5.468A.616.616,0,0,1,38.179,5a.62.62,0,0,1,.493-.138A29.3,29.3,0,0,1,63.029,29.208a.612.612,0,0,1-.606.709ZM39.189,6.194V23.136a11.893,11.893,0,0,1,5.56,5.556H61.7A27.923,27.923,0,0,0,39.189,6.194Zm-15.7,23.722H5.422a.612.612,0,0,1-.606-.709A29.3,29.3,0,0,1,29.174,4.863.622.622,0,0,1,29.668,5a.617.617,0,0,1,.215.467V23.526a.613.613,0,0,1-.366.56,10.69,10.69,0,0,0-5.469,5.466A.613.613,0,0,1,23.489,29.917ZM28.658,6.194a27.921,27.921,0,0,0-22.509,22.5H23.1a11.891,11.891,0,0,1,5.561-5.556Z" transform="translate(0 0)" fill="none"/>
    </clipPath>
    <clipPath id="clip-path-4">
      <path id="Clip_17" data-name="Clip 17" d="M8.069,16.128a8.064,8.064,0,1,1,8.068-8.065A8.076,8.076,0,0,1,8.069,16.128Zm0-14.9a6.84,6.84,0,1,0,6.843,6.839A6.849,6.849,0,0,0,8.069,1.225Z" transform="translate(0 0)" fill="none"/>
    </clipPath>
    <clipPath id="clip-path-5">
      <path id="Clip_22" data-name="Clip 22" d="M24.46,25.061H6.392a.61.61,0,0,1-.559-.365A10.678,10.678,0,0,0,.365,19.231.614.614,0,0,1,0,18.671V.612A.616.616,0,0,1,.215.145.631.631,0,0,1,.709.007,29.3,29.3,0,0,1,25.065,24.352a.613.613,0,0,1-.605.709ZM1.225,1.339V18.28a11.881,11.881,0,0,1,3.252,2.306,11.888,11.888,0,0,1,2.307,3.25H23.733A27.923,27.923,0,0,0,1.225,1.339Z" transform="translate(0 0)" fill="none"/>
    </clipPath>
    <clipPath id="clip-path-6">
      <path id="Clip_27" data-name="Clip 27" d="M18.68,25.061H.613a.613.613,0,0,1-.606-.709A29.3,29.3,0,0,1,24.365.007a.631.631,0,0,1,.494.138.618.618,0,0,1,.215.467V18.671a.614.614,0,0,1-.366.56A10.691,10.691,0,0,0,19.239,24.7.613.613,0,0,1,18.68,25.061ZM23.849,1.339A27.921,27.921,0,0,0,1.34,23.837H18.288a11.891,11.891,0,0,1,5.561-5.556Z" transform="translate(0 0)" fill="none"/>
    </clipPath>
    <clipPath id="clip-path-7">
      <path id="Clip_32" data-name="Clip 32" d="M24.461,25.062a.761.761,0,0,1-.1-.007A29.3,29.3,0,0,1,.007.709.613.613,0,0,1,.613,0H18.68a.614.614,0,0,1,.559.364A10.687,10.687,0,0,0,24.708,5.83a.614.614,0,0,1,.366.56V24.45a.611.611,0,0,1-.612.613ZM1.34,1.224a27.925,27.925,0,0,0,22.509,22.5V6.781A11.882,11.882,0,0,1,20.6,4.476a11.9,11.9,0,0,1-2.308-3.251Z" transform="translate(0 0)" fill="none"/>
    </clipPath>
    <clipPath id="clip-path-8">
      <path id="Clip_37" data-name="Clip 37" d="M.612,25.062A.611.611,0,0,1,0,24.45V6.39a.614.614,0,0,1,.365-.56A10.676,10.676,0,0,0,5.832.364.61.61,0,0,1,6.392,0H24.46a.613.613,0,0,1,.605.709A29.3,29.3,0,0,1,.709,25.056.764.764,0,0,1,.612,25.062ZM6.784,1.224A11.885,11.885,0,0,1,4.477,4.475,11.886,11.886,0,0,1,1.225,6.781V23.724a27.923,27.923,0,0,0,22.508-22.5Z" transform="translate(0 0)" fill="none"/>
    </clipPath>
  </defs>
  <g id="Group_39" data-name="Group 39" transform="translate(0 0.568)">
    <g id="Group_3" data-name="Group 3" transform="translate(73.947 42.947)">
      <path id="Clip_2-2" data-name="Clip 2" d="M.612,0A.612.612,0,0,0,0,.612H0a.611.611,0,0,0,.612.612H14.837c7.507,0,13.613,6.544,13.613,14.589h0V28.359A15.835,15.835,0,0,0,44.27,44.172H67.085a.612.612,0,0,0,.613-.612h0a.612.612,0,0,0-.613-.612H44.27a14.609,14.609,0,0,1-14.6-14.589h0V15.813C29.675,7.093,23.019,0,14.837,0H.612Z" transform="translate(0 0)" fill="none"/>
      <g id="Group_3-2" data-name="Group 3" transform="translate(0 0)" clip-path="url(#clip-path)">
        <path id="Fill_1" data-name="Fill 1" d="M.612,0A.612.612,0,0,0,0,.612H0a.611.611,0,0,0,.612.612H14.837c7.507,0,13.613,6.544,13.613,14.589h0V28.359A15.835,15.835,0,0,0,44.27,44.172H67.085a.612.612,0,0,0,.613-.612h0a.612.612,0,0,0-.613-.612H44.27a14.609,14.609,0,0,1-14.6-14.589h0V15.813C29.675,7.093,23.019,0,14.837,0H.612Z" transform="translate(0 0)" fill="url(#linear-gradient)"/>
      </g>
    </g>
    <path id="Fill_4" data-name="Fill 4" d="M42.968,85.9a42.781,42.781,0,0,1-24.025-7.335,43.073,43.073,0,0,1-15.567-18.9,42.879,42.879,0,0,1,3.961-40.73,43.087,43.087,0,0,1,18.9-15.56,42.927,42.927,0,0,1,40.749,3.96,43.074,43.074,0,0,1,15.567,18.9A42.877,42.877,0,0,1,78.6,66.96a43.088,43.088,0,0,1-18.9,15.56A42.716,42.716,0,0,1,42.968,85.9Zm0-76.268A33.321,33.321,0,1,0,76.3,42.948,33.366,33.366,0,0,0,42.968,9.627Z" transform="translate(0.613 0.612)" fill="#fff"/>
    <g id="Group_8" data-name="Group 8">
      <path id="Clip_7-2" data-name="Clip 7" d="M43.581,87.119A43.56,43.56,0,1,1,87.16,43.559,43.62,43.62,0,0,1,43.581,87.119Zm0-85.895A42.335,42.335,0,1,0,85.935,43.559,42.393,42.393,0,0,0,43.581,1.225Zm0,76.268A33.933,33.933,0,1,1,77.527,43.559,33.979,33.979,0,0,1,43.581,77.493Zm0-66.641A32.709,32.709,0,1,0,76.3,43.559,32.752,32.752,0,0,0,43.581,10.851Z" transform="translate(0 0)" fill="none"/>
      <g id="Group_8-2" data-name="Group 8" transform="translate(0 0)" clip-path="url(#clip-path-2)">
        <path id="Fill_6" data-name="Fill 6" d="M43.581,87.119A43.56,43.56,0,1,1,87.16,43.559,43.62,43.62,0,0,1,43.581,87.119Zm0-85.895A42.335,42.335,0,1,0,85.935,43.559,42.393,42.393,0,0,0,43.581,1.225Zm0,76.268A33.933,33.933,0,1,1,77.527,43.559,33.979,33.979,0,0,1,43.581,77.493Zm0-66.641A32.709,32.709,0,1,0,76.3,43.559,32.752,32.752,0,0,0,43.581,10.851Z" transform="translate(0 0)" fill="url(#linear-gradient)"/>
      </g>
    </g>
    <path id="Fill_9" data-name="Fill 9" d="M33.335,66.641A33.328,33.328,0,0,1,20.359,2.619a33.331,33.331,0,0,1,25.951,61.4A33.133,33.133,0,0,1,33.335,66.641ZM43.743,37.994a11.283,11.283,0,0,1-5.78,5.778v18.06A28.681,28.681,0,0,0,61.811,37.994Zm-38.933,0A28.681,28.681,0,0,0,28.658,61.832V43.772a11.3,11.3,0,0,1-5.782-5.778ZM33.335,25.869A7.452,7.452,0,1,0,40.79,33.32,7.463,7.463,0,0,0,33.335,25.869ZM37.963,4.856V22.915a11.281,11.281,0,0,1,5.78,5.778H61.811A28.679,28.679,0,0,0,37.963,4.856Zm-9.305,0A28.679,28.679,0,0,0,4.809,28.692H22.876a11.293,11.293,0,0,1,5.782-5.778Z" transform="translate(10.246 10.239)" fill="#fff"/>
    <g id="Group_13" data-name="Group 13" transform="translate(9.633 9.627)">
      <path id="Clip_12-2" data-name="Clip 12" d="M33.948,67.866A33.933,33.933,0,1,1,67.893,33.932,33.979,33.979,0,0,1,33.948,67.866Zm0-66.641A32.709,32.709,0,1,0,66.667,33.932,32.752,32.752,0,0,0,33.948,1.224Zm4.628,61.832a.612.612,0,0,1-.612-.613V44.384a.614.614,0,0,1,.366-.56A10.679,10.679,0,0,0,43.8,38.358a.611.611,0,0,1,.56-.364H62.424a.613.613,0,0,1,.606.708A29.3,29.3,0,0,1,38.673,63.049.676.676,0,0,1,38.576,63.056Zm6.172-23.839h0a11.9,11.9,0,0,1-5.56,5.557V61.718A27.922,27.922,0,0,0,61.7,39.218H44.748ZM29.271,63.056a.676.676,0,0,1-.1-.007A29.3,29.3,0,0,1,4.817,38.7a.613.613,0,0,1,.606-.708H23.489a.614.614,0,0,1,.559.364,10.687,10.687,0,0,0,5.469,5.466.614.614,0,0,1,.366.56v18.06a.611.611,0,0,1-.612.613ZM6.149,39.218h0a27.925,27.925,0,0,0,22.509,22.5V44.775A11.9,11.9,0,0,1,23.1,39.218H6.149ZM33.948,42a8.064,8.064,0,1,1,8.067-8.065A8.076,8.076,0,0,1,33.948,42Zm0-14.9a6.84,6.84,0,1,0,6.842,6.839A6.849,6.849,0,0,0,33.948,27.093Zm28.476,2.824H44.356a.61.61,0,0,1-.56-.364,10.678,10.678,0,0,0-5.467-5.466.614.614,0,0,1-.366-.56V5.468A.616.616,0,0,1,38.179,5a.62.62,0,0,1,.493-.138A29.3,29.3,0,0,1,63.029,29.208a.612.612,0,0,1-.606.709ZM39.189,6.194V23.136a11.893,11.893,0,0,1,5.56,5.556H61.7A27.923,27.923,0,0,0,39.189,6.194Zm-15.7,23.722H5.422a.612.612,0,0,1-.606-.709A29.3,29.3,0,0,1,29.174,4.863.622.622,0,0,1,29.668,5a.617.617,0,0,1,.215.467V23.526a.613.613,0,0,1-.366.56,10.69,10.69,0,0,0-5.469,5.466A.613.613,0,0,1,23.489,29.917ZM28.658,6.194a27.921,27.921,0,0,0-22.509,22.5H23.1a11.891,11.891,0,0,1,5.561-5.556Z" transform="translate(0 0)" fill="none"/>
      <g id="Group_13-2" data-name="Group 13" transform="translate(0 0)" clip-path="url(#clip-path-3)">
        <path id="Fill_11" data-name="Fill 11" d="M33.948,67.866A33.933,33.933,0,1,1,67.893,33.932,33.979,33.979,0,0,1,33.948,67.866Zm0-66.641A32.709,32.709,0,1,0,66.667,33.932,32.752,32.752,0,0,0,33.948,1.224Zm4.628,61.832a.612.612,0,0,1-.612-.613V44.384a.614.614,0,0,1,.366-.56A10.679,10.679,0,0,0,43.8,38.358a.611.611,0,0,1,.56-.364H62.424a.613.613,0,0,1,.606.708A29.3,29.3,0,0,1,38.673,63.049.676.676,0,0,1,38.576,63.056Zm6.172-23.839h0a11.9,11.9,0,0,1-5.56,5.557V61.718A27.922,27.922,0,0,0,61.7,39.218H44.748ZM29.271,63.056a.676.676,0,0,1-.1-.007A29.3,29.3,0,0,1,4.817,38.7a.613.613,0,0,1,.606-.708H23.489a.614.614,0,0,1,.559.364,10.687,10.687,0,0,0,5.469,5.466.614.614,0,0,1,.366.56v18.06a.611.611,0,0,1-.612.613ZM6.149,39.218h0a27.925,27.925,0,0,0,22.509,22.5V44.775A11.9,11.9,0,0,1,23.1,39.218H6.149ZM33.948,42a8.064,8.064,0,1,1,8.067-8.065A8.076,8.076,0,0,1,33.948,42Zm0-14.9a6.84,6.84,0,1,0,6.842,6.839A6.849,6.849,0,0,0,33.948,27.093Zm28.476,2.824H44.356a.61.61,0,0,1-.56-.364,10.678,10.678,0,0,0-5.467-5.466.614.614,0,0,1-.366-.56V5.468A.616.616,0,0,1,38.179,5a.62.62,0,0,1,.493-.138A29.3,29.3,0,0,1,63.029,29.208a.612.612,0,0,1-.606.709ZM39.189,6.194V23.136a11.893,11.893,0,0,1,5.56,5.556H61.7A27.923,27.923,0,0,0,39.189,6.194Zm-15.7,23.722H5.422a.612.612,0,0,1-.606-.709A29.3,29.3,0,0,1,29.174,4.863.622.622,0,0,1,29.668,5a.617.617,0,0,1,.215.467V23.526a.613.613,0,0,1-.366.56,10.69,10.69,0,0,0-5.469,5.466A.613.613,0,0,1,23.489,29.917ZM28.658,6.194a27.921,27.921,0,0,0-22.509,22.5H23.1a11.891,11.891,0,0,1,5.561-5.556Z" transform="translate(0 0)" fill="url(#linear-gradient)"/>
      </g>
    </g>
    <path id="Fill_14" data-name="Fill 14" d="M7.456,0a7.452,7.452,0,1,0,7.455,7.452A7.453,7.453,0,0,0,7.456,0" transform="translate(36.125 36.108)" fill="#fff"/>
    <g id="Group_18" data-name="Group 18" transform="translate(35.512 35.496)">
      <path id="Clip_17-2" data-name="Clip 17" d="M8.069,16.128a8.064,8.064,0,1,1,8.068-8.065A8.076,8.076,0,0,1,8.069,16.128Zm0-14.9a6.84,6.84,0,1,0,6.843,6.839A6.849,6.849,0,0,0,8.069,1.225Z" transform="translate(0 0)" fill="none"/>
      <g id="Group_18-2" data-name="Group 18" transform="translate(0 0)" clip-path="url(#clip-path-4)">
        <path id="Fill_16" data-name="Fill 16" d="M8.069,16.128a8.064,8.064,0,1,1,8.068-8.065A8.076,8.076,0,0,1,8.069,16.128Zm0-14.9a6.84,6.84,0,1,0,6.843,6.839A6.849,6.849,0,0,0,8.069,1.225Z" transform="translate(0 0)" fill="url(#linear-gradient)"/>
      </g>
    </g>
    <path id="Fill_19" data-name="Fill 19" d="M0,0V18.059a11.324,11.324,0,0,1,5.779,5.777H23.847A28.83,28.83,0,0,0,0,0" transform="translate(48.21 15.095)" fill="#fff"/>
    <g id="Group_23" data-name="Group 23" transform="translate(47.597 14.483)">
      <path id="Clip_22-2" data-name="Clip 22" d="M24.46,25.061H6.392a.61.61,0,0,1-.559-.365A10.678,10.678,0,0,0,.365,19.231.614.614,0,0,1,0,18.671V.612A.616.616,0,0,1,.215.145.631.631,0,0,1,.709.007,29.3,29.3,0,0,1,25.065,24.352a.613.613,0,0,1-.605.709ZM1.225,1.339V18.28a11.881,11.881,0,0,1,3.252,2.306,11.888,11.888,0,0,1,2.307,3.25H23.733A27.923,27.923,0,0,0,1.225,1.339Z" transform="translate(0 0)" fill="none"/>
      <g id="Group_23-2" data-name="Group 23" transform="translate(0 0)" clip-path="url(#clip-path-5)">
        <path id="Fill_21" data-name="Fill 21" d="M24.46,25.061H6.392a.61.61,0,0,1-.559-.365A10.678,10.678,0,0,0,.365,19.231.614.614,0,0,1,0,18.671V.612A.616.616,0,0,1,.215.145.631.631,0,0,1,.709.007,29.3,29.3,0,0,1,25.065,24.352a.613.613,0,0,1-.605.709ZM1.225,1.339V18.28a11.881,11.881,0,0,1,3.252,2.306,11.888,11.888,0,0,1,2.307,3.25H23.733A27.923,27.923,0,0,0,1.225,1.339Z" transform="translate(0 0)" fill="url(#linear-gradient)"/>
      </g>
    </g>
    <path id="Fill_24" data-name="Fill 24" d="M23.849,0A28.829,28.829,0,0,0,0,23.837H18.067a11.332,11.332,0,0,1,5.782-5.777Z" transform="translate(15.055 15.095)" fill="#fff"/>
    <g id="Group_28" data-name="Group 28" transform="translate(14.443 14.483)">
      <path id="Clip_27-2" data-name="Clip 27" d="M18.68,25.061H.613a.613.613,0,0,1-.606-.709A29.3,29.3,0,0,1,24.365.007a.631.631,0,0,1,.494.138.618.618,0,0,1,.215.467V18.671a.614.614,0,0,1-.366.56A10.691,10.691,0,0,0,19.239,24.7.613.613,0,0,1,18.68,25.061ZM23.849,1.339A27.921,27.921,0,0,0,1.34,23.837H18.288a11.891,11.891,0,0,1,5.561-5.556Z" transform="translate(0 0)" fill="none"/>
      <g id="Group_28-2" data-name="Group 28" transform="translate(0 0)" clip-path="url(#clip-path-6)">
        <path id="Fill_26" data-name="Fill 26" d="M18.68,25.061H.613a.613.613,0,0,1-.606-.709A29.3,29.3,0,0,1,24.365.007a.631.631,0,0,1,.494.138.618.618,0,0,1,.215.467V18.671a.614.614,0,0,1-.366.56A10.691,10.691,0,0,0,19.239,24.7.613.613,0,0,1,18.68,25.061ZM23.849,1.339A27.921,27.921,0,0,0,1.34,23.837H18.288a11.891,11.891,0,0,1,5.561-5.556Z" transform="translate(0 0)" fill="url(#linear-gradient)"/>
      </g>
    </g>
    <path id="Fill_29" data-name="Fill 29" d="M18.067,0H0A28.83,28.83,0,0,0,23.849,23.838V5.778A11.337,11.337,0,0,1,18.067,0" transform="translate(15.055 48.233)" fill="#fff"/>
    <g id="Group_33" data-name="Group 33" transform="translate(14.443 47.621)">
      <path id="Clip_32-2" data-name="Clip 32" d="M24.461,25.062a.761.761,0,0,1-.1-.007A29.3,29.3,0,0,1,.007.709.613.613,0,0,1,.613,0H18.68a.614.614,0,0,1,.559.364A10.687,10.687,0,0,0,24.708,5.83a.614.614,0,0,1,.366.56V24.45a.611.611,0,0,1-.612.613ZM1.34,1.224a27.925,27.925,0,0,0,22.509,22.5V6.781A11.882,11.882,0,0,1,20.6,4.476a11.9,11.9,0,0,1-2.308-3.251Z" transform="translate(0 0)" fill="none"/>
      <g id="Group_33-2" data-name="Group 33" transform="translate(0 0)" clip-path="url(#clip-path-7)">
        <path id="Fill_31" data-name="Fill 31" d="M24.461,25.062a.761.761,0,0,1-.1-.007A29.3,29.3,0,0,1,.007.709.613.613,0,0,1,.613,0H18.68a.614.614,0,0,1,.559.364A10.687,10.687,0,0,0,24.708,5.83a.614.614,0,0,1,.366.56V24.45a.611.611,0,0,1-.612.613ZM1.34,1.224a27.925,27.925,0,0,0,22.509,22.5V6.781A11.882,11.882,0,0,1,20.6,4.476a11.9,11.9,0,0,1-2.308-3.251Z" transform="translate(0 0)" fill="url(#linear-gradient)"/>
      </g>
    </g>
    <path id="Fill_34" data-name="Fill 34" d="M0,23.838A28.832,28.832,0,0,0,23.847,0H5.779A11.327,11.327,0,0,1,0,5.778Z" transform="translate(48.21 48.233)" fill="#fff"/>
    <g id="Group_38" data-name="Group 38" transform="translate(47.597 47.621)">
      <path id="Clip_37-2" data-name="Clip 37" d="M.612,25.062A.611.611,0,0,1,0,24.45V6.39a.614.614,0,0,1,.365-.56A10.676,10.676,0,0,0,5.832.364.61.61,0,0,1,6.392,0H24.46a.613.613,0,0,1,.605.709A29.3,29.3,0,0,1,.709,25.056.764.764,0,0,1,.612,25.062ZM6.784,1.224A11.885,11.885,0,0,1,4.477,4.475,11.886,11.886,0,0,1,1.225,6.781V23.724a27.923,27.923,0,0,0,22.508-22.5Z" transform="translate(0 0)" fill="none"/>
      <g id="Group_38-2" data-name="Group 38" transform="translate(0 0)" clip-path="url(#clip-path-8)">
        <path id="Fill_36" data-name="Fill 36" d="M.612,25.062A.611.611,0,0,1,0,24.45V6.39a.614.614,0,0,1,.365-.56A10.676,10.676,0,0,0,5.832.364.61.61,0,0,1,6.392,0H24.46a.613.613,0,0,1,.605.709A29.3,29.3,0,0,1,.709,25.056.764.764,0,0,1,.612,25.062ZM6.784,1.224A11.885,11.885,0,0,1,4.477,4.475,11.886,11.886,0,0,1,1.225,6.781V23.724a27.923,27.923,0,0,0,22.508-22.5Z" transform="translate(0 0)" fill="url(#linear-gradient)"/>
      </g>
    </g>
  </g>
</svg>
